<?xml version="1.0" encoding="UTF-8" standalone="no"?>
<svg
   xmlns:dc="http://purl.org/dc/elements/1.1/"
   xmlns:cc="http://creativecommons.org/ns#"
   xmlns:rdf="http://www.w3.org/1999/02/22-rdf-syntax-ns#"
   xmlns:svg="http://www.w3.org/2000/svg"
   xmlns="http://www.w3.org/2000/svg"
   xmlns:sodipodi="http://sodipodi.sourceforge.net/DTD/sodipodi-0.dtd"
   xmlns:inkscape="http://www.inkscape.org/namespaces/inkscape"
   id="svg"
   width="375.5983"
   height="81.940819"
   viewBox="0 0 375.5983 81.940819"
   version="1.1"
   sodipodi:docname="mbklogowhite.svg"
   inkscape:version="1.0.1 (3bc2e813f5, 2020-09-07)">
  <metadata
     id="metadata840">
    <rdf:RDF>
      <cc:Work
         rdf:about="">
        <dc:format>image/svg+xml</dc:format>
        <dc:type
           rdf:resource="http://purl.org/dc/dcmitype/StillImage" />
        <dc:title></dc:title>
      </cc:Work>
    </rdf:RDF>
  </metadata>
  <defs
     id="defs838" />
  <sodipodi:namedview
     pagecolor="#ffffff"
     bordercolor="#666666"
     borderopacity="1"
     objecttolerance="10"
     gridtolerance="10"
     guidetolerance="10"
     inkscape:pageopacity="0"
     inkscape:pageshadow="2"
     inkscape:window-width="1267"
     inkscape:window-height="1040"
     id="namedview836"
     showgrid="false"
     inkscape:zoom="1.03375"
     inkscape:cx="154.64221"
     inkscape:cy="50.862613"
     inkscape:window-x="1963"
     inkscape:window-y="45"
     inkscape:window-maximized="0"
     inkscape:current-layer="svg" />
  <g
     id="svgg"
     transform="translate(-12.293406,-160.30276)">
    <path
       id="path0"
       d="m 13.314,160.49 c -0.99,0.191 -1.032,0.658 -0.969,10.599 0.054,8.673 0.077,9.165 0.429,9.555 0.365,0.402 0.51,0.411 7.08,0.411 h 6.709 v 20.312 20.313 h -6.641 c -7.423,0 -7.255,-0.032 -7.519,1.405 -0.258,1.407 -0.016,18.439 0.267,18.78 0.272,0.327 41.943,0.52 43.139,0.2 0.804,-0.216 0.861,-0.976 0.795,-10.639 -0.049,-7.322 -0.113,-9.163 -0.327,-9.421 -0.235,-0.283 -1.026,-0.326 -6.836,-0.372 l -6.57,-0.051 -0.05,-20.59 c -0.027,-11.325 0.008,-20.533 0.078,-20.463 0.07,0.07 0.982,2.348 2.026,5.063 1.044,2.714 4.033,10.472 6.643,17.24 2.609,6.768 5.334,13.843 6.054,15.723 6.032,15.748 8.875,23 9.13,23.291 0.488,0.555 6.81,0.51 7.526,-0.054 0.491,-0.386 1.234,-2.16 6.097,-14.546 1.568,-3.995 4.842,-12.301 7.314,-18.555 6.3,-15.939 7.751,-19.615 9.479,-24.023 1.052,-2.686 1.989,-4.966 2.08,-5.068 0.091,-0.102 0.166,9.32 0.166,20.947 V 221.68 H 92.687 85.96 l -0.304,0.434 c -0.265,0.378 -0.304,1.628 -0.304,9.681 0,9.214 0.039,9.826 0.664,10.243 0.597,0.399 56.745,0.162 57.148,-0.241 0.532,-0.532 0.617,-18.526 0.093,-19.541 l -0.298,-0.576 h -6.734 -6.733 v -20.313 -20.312 h 6.539 6.538 l 0.303,-0.463 c 0.265,-0.404 0.296,-1.648 0.249,-9.978 l -0.055,-9.516 -0.461,-0.373 c -0.521,-0.422 -54.477,-0.603 -55.573,-0.186 -0.877,0.334 -1.391,1.534 -4.242,9.912 -1.543,4.534 -2.861,8.182 -2.93,8.106 -0.068,-0.077 -0.655,-1.501 -1.304,-3.166 -4.949,-12.688 -5.381,-13.699 -6.189,-14.453 l -0.523,-0.489 -29.037,-0.023 c -15.971,-0.013 -29.243,0.016 -29.493,0.064 m 145.446,-0.008 c -0.789,0.21 -0.85,0.935 -0.85,10.165 0,8.221 0.024,8.855 0.349,9.18 0.321,0.321 0.889,0.35 7.032,0.365 l 6.682,0.016 v 20.59 20.589 l -6.831,0.097 -6.83,0.098 -0.247,0.488 c -0.348,0.689 -0.365,19.536 -0.018,19.883 0.179,0.179 4.872,0.233 19.971,0.227 l 19.736,-0.008 7.073,-9.221 7.073,-9.221 -4.977,-0.097 -4.978,-0.098 -1.852,-3.498 c -1.019,-1.925 -1.822,-3.529 -1.785,-3.566 0.037,-0.037 7.024,-0.045 15.528,-0.017 l 15.462,0.05 -2.453,3.125 c -1.348,1.719 -3.932,5.015 -5.741,7.324 -1.809,2.31 -5.221,6.66 -7.583,9.668 l -4.293,5.469 18.677,0.053 c 20.837,0.06 19.922,0.112 23.097,-1.299 7.613,-3.383 11.353,-9.743 11.386,-19.36 0.033,-9.577 -2.776,-14.812 -9.996,-18.63 -2.183,-1.155 -2.177,-0.906 -0.065,-2.839 11.656,-10.665 12.99,-24.073 3.316,-33.331 -5.364,-5.134 -8.994,-6.222 -20.776,-6.23 l -8.004,-0.005 -1.371,2.539 -1.371,2.539 -8.583,0.051 c -9.386,0.056 -8.889,-0.015 -8.894,1.268 -0.003,0.63 0.058,0.732 0.436,0.732 16.834,-0.016 16.704,-0.031 18.75,2.114 4.178,4.381 3.439,11.721 -1.443,14.326 l -0.852,0.455 -10.036,0.055 c -12.11,0.067 -12.314,0.026 -14.331,-2.905 -1.541,-2.239 -1.602,-2.601 -1.668,-9.826 -0.067,-7.235 0.016,-7.828 1.418,-10.151 0.38,-0.63 0.691,-1.18 0.691,-1.22 0,-0.104 -40.455,-0.048 -40.849,0.056 m 120.301,0.172 c -0.877,0.476 -0.934,1.107 -0.935,10.342 0,7.792 0.031,8.658 0.341,9.277 l 0.342,0.684 6.885,0.051 6.886,0.052 -0.05,20.261 -0.05,20.261 -6.932,0.098 -6.933,0.097 -0.252,0.771 c -0.379,1.155 -0.257,18.338 0.135,19.102 l 0.276,0.538 h 23.571 23.571 l 0.372,-0.411 c 0.477,-0.527 0.681,-18.609 0.221,-19.511 -0.236,-0.461 -0.353,-0.492 -2.051,-0.545 l -1.802,-0.056 v -2.42 -2.421 l 3.31,-2.741 3.31,-2.742 2.549,5.006 c 1.403,2.754 2.55,5.08 2.55,5.17 0,0.089 -1.004,0.163 -2.232,0.163 -2.378,0 -2.723,0.121 -2.952,1.039 -0.311,1.249 0.01,18.414 0.355,18.94 l 0.346,0.529 h 28.426 c 30.15,-10e-4 28.994,0.039 29.357,-1.002 0.312,-0.897 0.277,-17.797 -0.04,-18.725 l -0.233,-0.684 -7.077,-0.051 -7.077,-0.051 -0.272,-0.437 c -0.26,-0.418 -7.524,-14.198 -12.867,-24.408 -1.39,-2.656 -2.497,-4.91 -2.461,-5.008 0.037,-0.098 2.902,-2.561 6.367,-5.473 l 6.3,-5.294 h 6.817 6.818 l 0.505,-0.601 0.506,-0.601 v -8.878 c 0,-9.697 -0.035,-10.033 -1.087,-10.433 -0.83,-0.316 -47.907,-0.165 -48.467,0.155 -0.809,0.462 -0.865,1.212 -0.801,10.621 0.059,8.445 0.082,8.937 0.434,9.326 0.364,0.402 0.513,0.411 6.885,0.411 3.582,0 6.512,0.066 6.512,0.146 -0.001,0.081 -0.506,0.55 -1.123,1.044 -0.618,0.493 -5.297,4.222 -10.4,8.286 -5.102,4.064 -10.356,8.252 -11.674,9.308 -1.318,1.055 -2.439,1.919 -2.49,1.919 -0.052,0 -0.094,-4.654 -0.094,-10.341 v -10.342 l 4.375,-0.059 c 5.899,-0.08 5.196,1.283 5.196,-10.06 0,-9.979 -0.023,-10.213 -1.018,-10.479 -1.087,-0.291 -51.601,-0.12 -52.148,0.177 m -72.42,15.29 c 0,1.446 -0.201,1.4 6.079,1.4 6.095,0 6.225,-0.023 6.225,-1.088 0,-1.207 -0.195,-1.244 -6.537,-1.244 h -5.767 v 0.932 m 10.789,20.851 0.05,9.491 4.297,0.031 4.297,0.031 v 3.613 3.613 h -13.086 -13.086 v -3.613 -3.613 l 4.297,-0.031 4.297,-0.031 0.052,-5.872 0.051,-5.871 -2.461,-0.055 -2.461,-0.054 -1.839,-3.418 c -1.011,-1.88 -1.838,-3.484 -1.838,-3.565 0,-0.08 3.91,-0.146 8.69,-0.146 h 8.689 l 0.051,9.49"
       stroke="none"
       fill="#000"
       fill-rule="evenodd" />
  </g>
</svg>
