<svg viewBox="0 0 251 48" fill="none" xmlns="http://www.w3.org/2000/svg">
<g clip-path="url(#clip0)">
<path d="M93.9997 19.168C93.9997 13.904 89.9997 10.9813 83.541 10.9813H60.709V15.8347H83.9677C87.349 15.8347 88.389 18.064 88.389 19.7973C88.389 21.5307 87.349 23.7547 83.9677 23.7547H60.709V37.28H66.2023V28.6293H83.429C86.9276 28.6293 87.733 30.512 87.733 31.9733V37.3066H93.4237V32.0906C93.4237 29.36 91.9623 27.2053 88.6236 26.128C92.0423 25.1307 93.9997 22.864 93.9997 19.168Z" fill="#2A2A2A"/>
<path d="M111.104 10.9813H105.605V37.28H111.104V10.9813Z" fill="#2A2A2A"/>
<path d="M152.928 31.7013H152.891C150.048 31.7013 149.584 31.088 143.317 22.4373C136.667 13.248 134.747 10.9813 127.669 10.9813H123.787V37.28H129.285V16.5333H129.323C131.989 16.5333 132.171 16.96 138.923 25.76C146.085 35.2 148.048 37.28 154.544 37.28H158.427V10.9813H152.928V31.7013Z" fill="#2A2A2A"/>
<path d="M197.904 31.8933H182.565C176.299 31.8933 175.531 29.168 175.531 24.0907C175.531 19.0133 176.299 16.3253 182.565 16.3253H203.093V10.992H182.565C173.147 10.992 169.915 15.488 169.915 24.1013C169.915 32.7147 173.147 37.2907 182.565 37.2907H203.403V22.9333H197.904V31.8933Z" fill="#2A2A2A"/>
<path d="M241.728 10.9813L233.653 20.7093C232.658 21.7356 231.766 22.8554 230.986 24.0533C230.215 22.8646 229.34 21.7456 228.373 20.7093L220.314 10.9813H212.314L225.312 25.168C226.133 26.0533 228.266 28.128 228.266 29.744V37.28H233.76V29.744C233.76 28.144 235.893 26.0906 236.725 25.168L249.717 10.9813H241.728Z" fill="#2A2A2A"/>
<path d="M6.93314 40.5333C10.2556 43.8547 14.4883 46.1163 19.096 47.0322C23.7038 47.9481 28.4796 47.4772 32.8197 45.679C37.1598 43.8808 40.8693 40.8361 43.4792 36.9299C46.089 33.0236 47.4819 28.4312 47.4819 23.7333C47.4819 19.0355 46.089 14.443 43.4792 10.5368C40.8693 6.63056 37.1598 3.58584 32.8197 1.78766C28.4796 -0.0105157 23.7038 -0.481419 19.096 0.434492C14.4883 1.3504 10.2556 3.612 6.93314 6.93333C2.48169 11.3912 -0.0185547 17.4335 -0.0185547 23.7333C-0.0185547 30.0332 2.48169 36.0755 6.93314 40.5333ZM8.53314 38.9333C6.63447 37.0347 7.80247 31.792 11.8931 25.6693C13.325 27.522 14.8748 29.2803 16.5331 30.9333C18.1877 32.59 19.9459 34.1398 21.7971 35.5733C15.6904 39.6693 10.4425 40.8427 8.53314 38.9333ZM13.2638 23.7333C16.2478 19.7746 19.776 16.2572 23.7438 13.2853C25.7202 14.7659 27.5881 16.386 29.3331 18.1333C31.0875 19.8782 32.7131 21.748 34.1971 23.728C32.7119 25.7103 31.0864 27.5836 29.3331 29.3333C27.5865 31.0879 25.7149 32.7135 23.7331 34.1973C21.7524 32.7121 19.881 31.0866 18.1331 29.3333C16.3841 27.5883 14.7622 25.7204 13.2798 23.744L13.2638 23.7333ZM12.4318 42C15.6318 41.632 19.6158 39.8667 23.7545 37.0187C27.8878 39.888 31.8665 41.6427 35.0718 42C31.6684 44.0971 27.7494 45.2076 23.7518 45.2076C19.7542 45.2076 15.8352 44.0971 12.4318 42ZM25.6798 35.6C27.5281 34.1575 29.2828 32.5988 30.9331 30.9333C32.5898 29.2788 34.1395 27.5205 35.5731 25.6693C39.6691 31.8027 40.8371 37.0507 38.9331 38.9333C37.0291 40.816 31.7971 39.6693 25.6798 35.584V35.6ZM41.9998 35.0667C41.6318 31.8667 39.8665 27.8827 37.0131 23.7493C39.8878 19.6107 41.6371 15.6373 41.9998 12.432C44.0949 15.8331 45.2043 19.7493 45.2043 23.744C45.2043 27.7387 44.0949 31.6548 41.9998 35.056V35.0667ZM38.9331 8.53333C40.8265 10.4267 39.6585 15.6747 35.5731 21.792C34.1394 19.9426 32.5896 18.1862 30.9331 16.5333C29.2771 14.8798 27.519 13.3319 25.6691 11.8987C31.7971 7.81867 37.0451 6.65067 38.9331 8.53333ZM35.0558 5.49333C31.8558 5.86133 27.8717 7.62667 23.7384 10.4747C19.5998 7.60533 15.6265 5.86667 12.4211 5.49333C15.8226 3.39374 19.7411 2.28178 23.7384 2.28178C27.7357 2.28178 31.6543 3.39374 35.0558 5.49333ZM21.8078 11.8933C18.101 14.7667 14.7732 18.0981 11.9038 21.808C7.81847 15.6907 6.65047 10.4427 8.53314 8.53333C10.4158 6.624 15.6904 7.81867 21.8078 11.9093V11.8933ZM10.4798 23.744C7.61047 27.8827 5.86647 31.856 5.49847 35.0667C3.40098 31.6663 2.29019 27.7498 2.29019 23.7547C2.29019 19.7595 3.40098 15.843 5.49847 12.4427C5.86647 15.632 7.5998 19.616 10.4798 23.744Z" fill="#2A2A2A"/>
</g>
<defs>
<clipPath id="clip0">
<rect width="250.133" height="48" fill="white"/>
</clipPath>
</defs>
</svg>
